# xmcd
#
# Track frame offsets: 
#        150
#        18504
#        39320
#        57894
#        77314
#        98677
#        122082
#        134850
#        153052
#        172766
#        189229
#        203745
#        225406
#
# Disc length: 3296 seconds
#
# Revision: 0
# Processed by: cddbd v1.5.2PL0 Copyright (c) Steve Scherf et al.
# Submitted via: ExactAudioCopy v0.99pb5
#
DISCID=910cde0d
DTITLE=Tip Of The Hat - From Memphis To Greaseland
DYEAR=2011
DGENRE=Blues
TTITLE0=I Ain't Worried
TTITLE1=One Way Out
TTITLE2=The Night Is Young
TTITLE3=Mean Ol' Frisco
TTITLE4=She's Too Much
TTITLE5=I'm Lost
TTITLE6=Rocker
TTITLE7=Fattening Frogs For Snakes
TTITLE8=Slidin' Home
TTITLE9=My Baby's Gone (And I Feel Good)
TTITLE10=Hard To Get
TTITLE11=She's Fine
TTITLE12=The Sportin' Life
EXTD=
EXTT0=
EXTT1=
EXTT2=
EXTT3=
EXTT4=
EXTT5=
EXTT6=
EXTT7=
EXTT8=
EXTT9=
EXTT10=
EXTT11=
EXTT12=
PLAYORDER=
